<?xml version="1.0" standalone="no"?>
<!DOCTYPE svg PUBLIC "-//W3C//DTD SVG 20010904//EN"
 "http://www.w3.org/TR/2001/REC-SVG-20010904/DTD/svg10.dtd">
<svg version="1.0" xmlns="http://www.w3.org/2000/svg"
 width="300.000000pt" height="300.000000pt" viewBox="0 0 300.000000 300.000000"
 preserveAspectRatio="xMidYMid meet">
<metadata>
Created by potrace 1.10, written by Peter Selinger 2001-2011
</metadata>
<g transform="translate(0.000000,300.000000) scale(0.100000,-0.100000)"
fill="#000000" stroke="none">
<path d="M1087 2838 c-10 -5 -29 -28 -43 -50 -22 -34 -25 -48 -19 -84 4 -29
13 -48 26 -55 16 -8 18 -13 8 -25 -6 -8 -9 -18 -5 -21 4 -4 11 -1 16 7 8 12
10 12 10 -4 0 -25 78 -99 96 -92 8 3 14 2 15 -2 0 -4 2 -14 4 -22 2 -8 6 -31
10 -49 6 -35 6 -35 -15 -16 -26 24 -38 13 -12 -13 11 -11 24 -32 29 -48 9 -26
11 -23 18 38 6 59 11 70 45 103 37 36 39 37 61 21 16 -11 45 -16 86 -16 83 0
104 -10 141 -66 40 -60 67 -131 102 -269 32 -124 30 -151 -13 -247 -22 -50
-30 -58 -53 -58 l-27 0 7 -126 8 -125 -37 -35 c-31 -29 -56 -39 -86 -36 -3 1
-4 -10 -1 -23 3 -21 -1 -25 -31 -30 -35 -7 -147 -70 -147 -83 0 -4 4 -13 8
-20 9 -14 42 -6 42 10 0 6 -6 6 -14 -1 -9 -8 -16 -8 -20 -2 -8 13 51 44 66 35
7 -5 8 -3 3 6 -6 10 -4 12 9 7 10 -4 20 -7 22 -7 2 0 4 -4 4 -10 0 -5 -8 -10
-17 -10 -15 0 -16 -2 -3 -10 23 -15 27 -13 44 30 9 22 22 39 28 38 8 -2 14 9
16 25 2 16 11 31 20 34 46 14 82 40 93 64 6 16 11 79 10 143 0 111 1 115 22
118 28 4 87 116 92 175 5 69 -49 272 -100 373 -51 101 -96 130 -203 129 -29
-1 -59 4 -67 11 -15 13 -50 0 -58 -22 -2 -7 -7 -10 -11 -6 -4 3 -3 14 2 25 24
46 30 105 14 142 -8 20 -14 52 -14 71 2 44 -3 51 -53 72 -44 19 -101 21 -128
6z m53 -14 c0 -8 -19 -13 -24 -6 -3 5 1 9 9 9 8 0 15 -2 15 -3z m-60 -34 c0
-5 -5 -10 -11 -10 -5 0 -7 5 -4 10 3 6 8 10 11 10 2 0 4 -4 4 -10z m160 -40
c11 -15 20 -32 20 -37 0 -4 7 -21 15 -36 11 -22 12 -34 3 -50 -16 -31 -50 -56
-74 -57 -24 0 -49 24 -40 38 9 16 68 23 82 11 11 -9 14 -8 14 4 0 22 -11 47
-21 47 -4 0 -5 -8 -2 -17 6 -16 4 -16 -9 -5 -9 7 -32 12 -50 10 l-33 -3 3 -54
c3 -36 0 -51 -7 -47 -6 4 -11 14 -11 22 0 8 -7 14 -16 14 -18 0 -44 57 -44 97
0 37 32 84 67 98 37 15 77 2 103 -35z m-37 -207 c-7 -2 -21 -2 -30 0 -10 3 -4
5 12 5 17 0 24 -2 18 -5z m57 -26 c0 -2 -10 -12 -22 -23 -12 -10 -18 -13 -14
-6 4 7 2 12 -6 13 -7 0 -4 4 7 9 22 9 35 12 35 7z m156 -1048 c3 -6 2 -15 -2
-19 -12 -12 -38 5 -30 19 9 14 23 14 32 0z"/>
<path d="M1193 2730 c5 -33 23 -45 42 -30 15 13 15 15 -6 22 -19 8 -21 11 -9
18 12 8 10 10 -7 10 -17 0 -22 -5 -20 -20z"/>
<path d="M1118 2728 c-8 -7 -18 -20 -21 -29 -4 -13 1 -17 21 -17 33 0 52 14
52 39 0 22 -28 25 -52 7z"/>
<path d="M1180 2600 c0 -5 11 -10 25 -10 14 0 25 5 25 10 0 6 -11 10 -25 10
-14 0 -25 -4 -25 -10z"/>
<path d="M1030 2623 c0 -10 4 -14 8 -8 4 6 11 13 16 18 5 4 2 7 -7 7 -10 0
-17 -8 -17 -17z"/>
<path d="M1030 2590 c0 -6 7 -13 15 -17 24 -9 27 1 5 15 -13 8 -20 8 -20 2z"/>
<path d="M1126 2493 c4 -10 7 -40 6 -66 -2 -38 -11 -62 -39 -105 -35 -52 -37
-60 -39 -141 -1 -47 4 -108 11 -136 7 -27 15 -83 18 -123 5 -62 3 -74 -13 -82
-26 -14 -32 -38 -15 -70 8 -16 15 -51 16 -77 1 -51 37 -150 38 -105 1 13 -6
36 -14 53 -11 21 -14 43 -9 77 5 37 2 51 -10 61 -23 19 -20 30 10 43 27 12 27
13 20 98 -3 47 -10 101 -16 120 -6 19 -10 77 -11 127 l-1 93 46 65 c48 69 56
86 31 65 -18 -15 -18 -15 -5 29 7 25 6 40 -6 62 -16 31 -31 41 -18 12z"/>
<path d="M1258 2445 c3 -19 8 -23 15 -16 6 6 21 11 33 11 29 0 39 15 11 15
-12 1 -32 4 -43 8 -19 7 -21 4 -16 -18z"/>
<path d="M1496 2432 c-2 -4 -1 -14 4 -22 7 -11 9 -9 7 8 -1 24 -3 26 -11 14z"/>
<path d="M1380 2382 c0 -13 35 -42 50 -42 7 0 1 11 -14 25 -29 27 -36 30 -36
17z"/>
<path d="M1452 2338 c5 -25 3 -27 -21 -23 -14 3 -19 2 -11 -1 20 -10 49 -46
50 -64 0 -8 8 -24 17 -35 16 -20 16 -20 8 0 -4 11 -14 47 -22 80 -15 61 -30
92 -21 43z"/>
<path d="M1340 2270 c0 -5 4 -10 9 -10 6 0 13 5 16 10 3 6 -1 10 -9 10 -9 0
-16 -4 -16 -10z"/>
<path d="M1503 2185 c-3 -9 3 -25 12 -35 24 -26 31 -18 11 12 -9 14 -13 28 -9
31 3 4 3 7 -1 7 -3 0 -9 -7 -13 -15z"/>
<path d="M1545 2190 c-3 -5 -1 -10 4 -10 6 0 11 5 11 10 0 6 -2 10 -4 10 -3 0
-8 -4 -11 -10z"/>
<path d="M1124 2155 c20 -80 35 -172 30 -192 -4 -15 -2 -23 6 -23 9 0 11 13 7
48 -11 84 -25 151 -37 169 -10 17 -11 16 -6 -2z"/>
<path d="M1365 2160 c-16 -7 -17 -9 -3 -9 9 -1 20 4 23 9 7 11 7 11 -20 0z"/>
<path d="M1470 2149 c0 -5 5 -7 10 -4 6 3 10 8 10 11 0 2 -4 4 -10 4 -5 0 -10
-5 -10 -11z"/>
<path d="M1573 2132 c-7 -4 -9 -13 -4 -21 6 -9 11 -10 15 -2 4 6 19 11 34 11
21 0 24 -2 12 -10 -12 -8 -10 -10 9 -10 23 0 24 1 6 20 -18 20 -50 26 -72 12z"/>
<path d="M1514 2086 c-3 -14 -3 -34 1 -44 3 -11 1 -23 -5 -27 -5 -3 -10 -11
-10 -16 0 -5 10 -1 22 10 17 17 19 23 8 36 -7 8 -10 25 -6 40 4 14 4 25 1 25
-2 0 -7 -11 -11 -24z"/>
<path d="M1600 2051 c0 -5 7 -11 14 -14 10 -4 13 -1 9 9 -6 15 -23 19 -23 5z"/>
<path d="M1196 2025 c-3 -8 -1 -15 4 -15 6 0 10 7 10 15 0 8 -2 15 -4 15 -2 0
-6 -7 -10 -15z"/>
<path d="M1335 2010 c-3 -6 1 -7 9 -4 18 7 21 14 7 14 -6 0 -13 -4 -16 -10z"/>
<path d="M1565 1990 c9 -16 17 -30 20 -30 2 0 -1 14 -6 30 -6 17 -15 30 -20
30 -5 0 -3 -13 6 -30z"/>
<path d="M1348 1973 c6 -2 18 -2 25 0 6 3 1 5 -13 5 -14 0 -19 -2 -12 -5z"/>
<path d="M1618 1973 c7 -3 16 -2 19 1 4 3 -2 6 -13 5 -11 0 -14 -3 -6 -6z"/>
<path d="M1189 1933 c-13 -15 -12 -15 9 -4 23 12 28 21 13 21 -5 0 -15 -7 -22
-17z"/>
<path d="M1447 1895 c-34 -41 -36 -45 -17 -45 12 0 19 4 16 8 -8 13 50 62 73
62 32 0 33 -16 3 -50 -21 -22 -34 -29 -48 -24 -19 7 -19 7 0 -14 11 -12 17
-23 15 -25 -47 -28 -49 -28 -73 -4 -29 29 -43 25 -62 -21 -15 -37 -51 -82 -65
-82 -4 0 -16 14 -27 31 -24 38 -29 31 -36 -51 -5 -54 -4 -59 5 -32 9 30 33 51
44 40 2 -2 -8 -21 -22 -42 -25 -35 -31 -37 -70 -34 -44 3 -53 -4 -53 -44 0
-19 1 -19 27 2 18 14 35 19 50 15 15 -3 23 -1 23 7 0 9 3 8 10 -2 5 -8 10 -19
10 -25 0 -5 -4 -5 -8 1 -5 9 -11 8 -20 -2 -11 -12 -10 -15 2 -20 20 -8 21 -24
1 -24 -8 0 -15 -5 -15 -11 0 -24 34 -2 45 30 7 22 21 37 43 47 18 7 32 16 32
19 0 3 -15 -1 -33 -9 l-33 -13 14 46 c18 56 38 81 66 81 17 0 18 2 6 10 -12 8
-10 10 10 11 18 0 21 2 9 7 -14 6 -14 11 -2 40 l14 33 30 -25 c28 -24 77 -37
65 -17 -3 4 3 16 14 26 11 10 17 22 13 28 -3 6 -1 7 5 3 6 -3 18 6 27 22 9 15
31 34 47 41 l31 14 -59 18 c-32 10 -61 19 -64 19 -3 0 -23 -20 -43 -45z"/>
<path d="M1144 1915 c-17 -13 -17 -14 -2 -15 9 0 20 5 23 11 11 17 0 20 -21 4z"/>
<path d="M1260 1911 c0 -4 11 -6 25 -3 14 2 25 6 25 8 0 2 -11 4 -25 4 -14 0
-25 -4 -25 -9z"/>
<path d="M1193 1898 c-23 -30 -26 -42 -5 -24 23 20 30 10 10 -14 -11 -12 -10
-12 5 -1 17 14 24 51 8 51 -5 0 -13 -6 -18 -12z"/>
<path d="M1328 1893 c7 -3 16 -2 19 1 4 3 -2 6 -13 5 -11 0 -14 -3 -6 -6z"/>
<path d="M1313 1833 c9 -2 23 -2 30 0 6 3 -1 5 -18 5 -16 0 -22 -2 -12 -5z"/>
<path d="M1424 1828 c-4 -7 -4 -10 1 -6 4 4 15 2 23 -5 12 -10 14 -9 11 2 -7
20 -26 25 -35 9z"/>
<path d="M1198 1813 c7 -3 16 -2 19 1 4 3 -2 6 -13 5 -11 0 -14 -3 -6 -6z"/>
<path d="M1160 1784 c0 -14 4 -23 9 -19 11 6 10 45 -1 45 -4 0 -8 -12 -8 -26z"/>
<path d="M1518 1773 c7 -3 16 -2 19 1 4 3 -2 6 -13 5 -11 0 -14 -3 -6 -6z"/>
<path d="M1105 1761 c-3 -6 1 -11 9 -11 9 0 16 -4 16 -10 0 -5 -3 -9 -7 -9
-19 3 -27 -2 -15 -9 9 -7 10 -15 3 -35 -7 -17 -7 -28 -1 -32 6 -4 10 4 10 17
0 14 8 27 22 33 12 6 23 16 24 23 1 7 0 8 -3 2 -9 -19 -24 -10 -21 12 3 24
-25 38 -37 19z"/>
<path d="M1475 1740 c-9 -15 4 -30 26 -30 11 0 19 -7 19 -16 0 -14 -2 -14 -16
-3 -14 12 -16 11 -13 -5 2 -10 14 -25 26 -33 20 -13 22 -12 33 22 14 42 8 65
-17 65 -17 -1 -17 -1 0 -11 9 -6 15 -15 11 -20 -8 -13 -34 8 -34 27 0 16 -26
19 -35 4z"/>
<path d="M1415 1730 c-16 -4 -24 -8 -17 -9 6 0 20 -9 31 -20 18 -18 19 -18 17
10 0 16 -1 28 -1 28 0 -1 -13 -5 -30 -9z"/>
<path d="M1350 1696 c0 -2 7 -6 15 -10 8 -3 15 -1 15 4 0 6 -7 10 -15 10 -8 0
-15 -2 -15 -4z"/>
<path d="M1390 1669 c0 -22 13 -25 29 -5 9 11 7 15 -9 19 -15 4 -20 0 -20 -14z"/>
<path d="M1333 1668 c-5 -7 -13 -20 -18 -28 -6 -12 -5 -13 6 -2 7 6 21 12 32
12 10 0 17 5 15 12 -6 17 -24 20 -35 6z"/>
<path d="M1440 1659 c0 -5 11 -11 25 -15 27 -7 29 -12 16 -33 -5 -8 -7 -21 -4
-29 4 -9 10 -4 19 18 19 43 18 50 -6 50 -11 0 -20 4 -20 8 0 5 -7 9 -15 9 -8
0 -15 -4 -15 -8z"/>
<path d="M1410 1625 c0 -9 6 -12 16 -8 13 5 15 2 10 -13 -6 -20 9 -53 19 -42
11 11 13 42 3 61 -11 21 -48 23 -48 2z"/>
<path d="M1516 1605 c-9 -14 -13 -25 -8 -25 5 0 14 11 20 25 6 14 10 25 8 25
-2 0 -11 -11 -20 -25z"/>
<path d="M1366 1591 c-3 -5 1 -11 9 -15 9 -3 15 0 15 9 0 16 -16 20 -24 6z"/>
<path d="M1325 1579 c-11 -17 1 -21 15 -4 8 9 8 15 2 15 -6 0 -14 -5 -17 -11z"/>
<path d="M1168 1559 c-10 -5 -18 -15 -18 -22 0 -8 3 -9 8 -1 4 6 16 16 27 22
11 6 16 11 10 11 -5 0 -18 -4 -27 -10z"/>
<path d="M1330 1550 c-14 -10 -22 -21 -19 -24 3 -3 16 5 29 19 28 30 24 32
-10 5z"/>
<path d="M1377 1545 c-41 -24 -39 -32 6 -30 15 0 27 -3 27 -7 0 -4 7 -5 15 -2
18 7 20 38 2 52 -9 8 -23 4 -50 -13z m33 -5 c0 -5 -5 -10 -11 -10 -5 0 -7 5
-4 10 3 6 8 10 11 10 2 0 4 -4 4 -10z"/>
<path d="M1121 1536 c-2 -15 22 -86 28 -86 3 0 6 -28 6 -63 0 -66 18 -122 41
-131 12 -5 12 -2 0 22 -7 15 -16 63 -20 107 -4 44 -11 82 -16 85 -4 3 -15 21
-23 40 -9 19 -16 31 -16 26z"/>
<path d="M1172 1520 c-18 -30 -14 -36 8 -12 21 22 25 32 12 32 -4 0 -13 -9
-20 -20z"/>
<path d="M1310 1490 c-21 -17 -22 -20 -7 -20 17 0 47 22 47 34 0 11 -15 6 -40
-14z"/>
<path d="M1207 1475 c-13 -9 -17 -23 -15 -42 4 -25 5 -26 12 -8 4 11 12 28 17
38 13 25 8 29 -14 12z"/>
<path d="M1443 1438 c-11 -18 -13 -38 -3 -38 4 0 10 11 12 25 6 28 3 31 -9 13z"/>
<path d="M1230 1389 c0 -5 5 -7 10 -4 6 3 10 8 10 11 0 2 -4 4 -10 4 -5 0 -10
-5 -10 -11z"/>
<path d="M1371 1393 c-1 -7 -17 -15 -36 -19 -19 -3 -37 -9 -39 -13 -5 -8 93
-5 101 3 14 14 20 4 17 -26 -1 -18 -3 -36 -3 -40 -1 -5 -11 -8 -22 -8 -17 0
-19 3 -10 14 15 18 -2 17 -36 -2 -12 -7 -28 -12 -36 -12 -8 0 -20 -7 -27 -14
-8 -11 -18 -12 -35 -6 -19 7 -23 6 -21 -8 2 -9 8 -18 14 -20 6 -2 8 -11 5 -20
-4 -13 -3 -14 5 -4 15 22 74 -12 70 -40 -2 -12 -9 -24 -17 -26 -10 -3 -12 1
-8 17 3 11 1 19 -4 15 -5 -3 -9 0 -9 5 0 6 -8 11 -17 11 -14 0 -15 -2 -5 -9 8
-4 13 -11 13 -15 -6 -40 -2 -43 54 -39 52 3 56 2 65 -22 6 -15 14 -24 19 -21
5 3 11 -5 13 -19 3 -14 1 -25 -3 -25 -5 0 -9 8 -9 18 0 14 -2 15 -10 2 -8 -12
-10 -12 -15 2 -4 9 -13 19 -20 22 -19 7 -72 -20 -80 -41 -3 -10 -3 -14 1 -11
4 4 16 3 27 -3 14 -8 18 -8 13 0 -14 21 12 11 27 -11 8 -13 18 -20 23 -15 4 4
-3 18 -16 32 -13 14 -19 25 -13 25 6 0 16 -7 23 -15 7 -8 16 -12 21 -9 5 3 9
-2 9 -11 0 -9 5 -13 10 -10 13 8 13 -1 1 -24 -6 -10 -6 -23 0 -32 7 -11 9 -11
9 4 0 10 5 15 10 12 6 -4 8 -11 5 -16 -4 -5 -1 -9 4 -9 22 0 10 -20 -11 -21
-17 -1 -19 -2 -5 -6 9 -2 17 -11 17 -19 0 -8 5 -14 10 -14 11 0 10 16 -9 145
-6 39 -11 92 -11 119 0 45 2 48 23 43 12 -3 48 -11 79 -17 32 -6 64 -18 72
-25 20 -20 81 -22 103 -4 23 21 43 32 43 25 0 -3 -18 -18 -40 -32 -28 -19 -48
-25 -70 -22 -28 4 -30 2 -30 -25 0 -16 -7 -54 -16 -84 -19 -64 -10 -77 40 -68
68 12 98 52 118 158 7 36 15 64 18 62 7 -4 11 84 5 112 -3 12 -14 24 -25 28
-37 12 -120 22 -120 15 0 -4 22 -10 50 -14 84 -11 97 -61 32 -129 -27 -28 -88
-37 -78 -10 3 7 2 12 -2 11 -4 -1 -31 6 -61 15 -30 9 -65 17 -78 17 -13 0 -23
4 -23 10 0 5 -7 6 -17 3 -11 -4 -14 -3 -9 6 4 6 -13 2 -38 -10 -37 -19 -43
-25 -35 -40 15 -29 11 -39 -16 -39 -16 0 -25 6 -25 15 0 8 5 15 11 15 8 0 8 5
-1 15 -7 8 -9 15 -4 15 5 0 2 5 -6 10 -12 8 -10 10 8 10 13 0 38 7 55 16 18 9
43 23 57 30 34 17 37 34 6 34 -30 0 -36 8 -25 35 6 17 8 17 8 3 1 -10 5 -18
11 -18 6 0 5 10 -2 25 -8 18 -19 25 -39 25 -15 0 -30 6 -32 13 -4 9 -6 9 -6 0z
m79 -98 c0 -13 -107 -55 -138 -55 -36 0 -41 22 -7 28 10 3 15 0 11 -7 -5 -7
-1 -9 8 -5 9 3 16 10 16 14 0 4 10 5 23 3 12 -2 31 3 42 11 20 15 45 21 45 11z
m-25 -75 c-3 -5 -12 -10 -18 -10 -7 0 -6 4 3 10 19 12 23 12 15 0z m-15 -50
c0 -16 0 -32 0 -35 0 -3 -3 -5 -7 -5 -12 0 -15 70 -3 70 5 0 10 -13 10 -30z
m320 -35 c-7 -8 -9 -15 -4 -15 4 0 3 -5 -3 -11 -6 -6 -17 -8 -23 -4 -9 6 -6
13 11 26 29 23 35 24 19 4z m-45 -39 c8 -7 11 -17 7 -21 -4 -5 1 -5 12 -1 16
5 17 3 12 -21 -8 -32 -48 -69 -83 -76 -24 -4 -46 14 -25 21 7 2 10 8 6 13 -3
5 -1 9 5 9 6 0 8 6 5 14 -3 8 0 17 5 21 6 3 9 11 5 16 -18 30 25 52 51 25z"/>
<path d="M1541 1357 c2 -1 13 -9 24 -17 19 -14 19 -14 6 3 -7 9 -18 17 -24 17
-6 0 -8 -1 -6 -3z"/>
<path d="M1311 1338 c-12 -4 -21 -9 -21 -12 0 -8 62 2 72 12 13 13 -18 13 -51
0z"/>
<path d="M1490 1339 c0 -5 4 -8 9 -4 6 3 19 -5 30 -17 12 -12 21 -17 21 -11 0
13 -33 43 -48 43 -7 0 -12 -5 -12 -11z"/>
<path d="M1255 1320 c3 -5 8 -10 11 -10 2 0 4 5 4 10 0 6 -5 10 -11 10 -5 0
-7 -4 -4 -10z"/>
<path d="M1585 1310 c-3 -5 1 -10 10 -10 9 0 13 5 10 10 -3 6 -8 10 -10 10 -2
0 -7 -4 -10 -10z"/>
<path d="M1632 1298 c3 -7 11 -13 18 -13 7 0 15 -6 18 -14 3 -10 -2 -11 -19
-6 -18 5 -20 4 -9 -4 12 -8 12 -13 2 -23 -9 -9 -12 -9 -12 2 0 11 -3 11 -12 2
-7 -7 -21 -12 -32 -13 -21 0 -21 0 -1 -8 12 -5 23 -4 28 3 5 8 10 7 16 -3 7
-10 15 -4 35 25 27 40 33 60 16 49 -5 -3 -19 -1 -31 6 -17 9 -20 8 -17 -3z"/>
<path d="M1494 1279 c0 -18 2 -19 12 -4 9 12 13 13 17 3 4 -8 6 -7 6 5 1 10
-6 17 -17 17 -11 0 -18 -7 -18 -21z"/>
<path d="M1562 1278 c-7 -7 -12 -15 -12 -19 0 -9 27 -5 37 6 4 4 2 5 -4 1 -7
-4 -13 -3 -13 3 0 5 8 12 18 14 13 4 13 5 2 6 -9 0 -21 -4 -28 -11z"/>
<path d="M1704 1263 c4 -14 -2 -25 -24 -41 -20 -15 -27 -27 -23 -39 5 -13 11
-11 35 16 29 32 36 65 17 77 -7 4 -9 0 -5 -13z"/>
<path d="M1211 1197 c-1 -31 6 -62 20 -88 25 -50 34 -46 15 7 -8 21 -19 59
-24 84 l-10 45 -1 -48z"/>
<path d="M1770 1094 c0 -93 -75 -170 -155 -160 -31 4 -36 2 -22 -6 51 -28 115
-6 161 55 21 29 37 119 24 139 -4 8 -8 -3 -8 -28z"/>
<path d="M1265 1111 c-7 -12 12 -24 25 -16 11 7 4 25 -10 25 -5 0 -11 -4 -15
-9z"/>
<path d="M1271 1017 c0 -7 4 -21 9 -32 7 -17 9 -17 9 -2 1 9 6 17 11 17 18 0
10 18 -10 23 -12 3 -20 0 -19 -6z"/>
<path d="M1309 984 c-12 -15 -11 -16 8 -10 27 9 52 -2 33 -14 -8 -5 -5 -9 9
-13 32 -8 34 9 5 32 -32 25 -38 26 -55 5z"/>
<path d="M1290 939 c0 -5 5 -7 10 -4 6 3 10 8 10 11 0 2 -4 4 -10 4 -5 0 -10
-5 -10 -11z"/>
<path d="M1320 935 c0 -9 78 -56 96 -59 19 -3 28 -32 13 -42 -5 -3 -7 -10 -4
-15 4 -5 2 -9 -4 -9 -6 0 -8 -6 -5 -13 10 -26 30 -15 26 15 -3 22 0 28 14 28
16 0 17 2 4 10 -10 6 -11 10 -2 10 6 0 12 7 12 16 0 13 -3 14 -13 5 -16 -13
-27 -5 -27 21 0 10 -4 18 -9 18 -5 0 -17 3 -27 7 -16 6 -17 5 -4 -9 8 -9 20
-13 25 -10 6 2 4 -1 -2 -8 -11 -11 -17 -10 -35 7 -22 20 -58 37 -58 28z"/>
<path d="M1338 878 c6 -6 24 -12 39 -14 l28 -3 -25 14 c-32 18 -59 20 -42 3z"/>
<path d="M1353 835 c-32 -14 -47 -30 -18 -19 9 4 15 0 15 -10 0 -9 7 -16 16
-16 10 0 14 6 11 14 -4 9 2 17 14 21 21 7 26 25 7 25 -7 -1 -28 -7 -45 -15z"/>
<path d="M1450 816 c0 -2 8 -10 18 -17 15 -13 16 -12 3 4 -13 16 -21 21 -21
13z"/>
<path d="M1336 763 c-4 -8 -6 -25 -6 -38 0 -19 7 -24 40 -29 47 -7 49 -15 15
-53 -21 -24 -26 -26 -35 -13 -5 8 -10 11 -10 5 0 -5 5 -17 10 -25 8 -12 11
-13 19 -1 5 7 17 11 27 7 11 -3 26 -1 34 4 12 8 11 10 -8 10 -21 0 -22 1 -7
23 14 21 13 24 -13 47 -16 14 -36 24 -45 22 -25 -5 -21 7 6 18 20 8 21 9 2 10
-17 2 -16 3 5 9 l25 7 -27 6 c-18 3 -29 0 -32 -9z"/>
<path d="M1467 773 c-4 -6 -2 -24 3 -39 6 -15 9 -33 6 -40 -3 -7 2 -18 10 -25
13 -11 14 -9 10 12 -4 13 -10 42 -14 64 -4 22 -11 35 -15 28z"/>
<path d="M1395 740 c-3 -6 1 -7 9 -4 18 7 21 14 7 14 -6 0 -13 -4 -16 -10z"/>
<path d="M1436 735 c5 -11 2 -13 -11 -9 -16 7 -16 6 0 -14 25 -28 46 -19 31
14 -12 26 -29 34 -20 9z"/>
<path d="M1340 670 c0 -5 12 -10 26 -10 14 0 23 4 19 10 -3 6 -15 10 -26 10
-10 0 -19 -4 -19 -10z"/>
<path d="M1453 659 c-12 -12 -6 -49 8 -49 6 0 9 60 4 60 -1 0 -6 -5 -12 -11z"/>
<path d="M1481 593 c4 -47 1 -51 -41 -43 -37 7 -39 6 -29 -12 9 -17 8 -19 -8
-16 -10 2 -17 11 -15 21 2 9 -2 17 -8 17 -5 0 -10 -6 -10 -13 0 -7 -10 -17
-22 -22 -12 -6 -24 -17 -26 -25 -4 -13 -2 -12 14 1 10 9 27 15 37 14 29 -5 33
-15 6 -15 -13 0 -32 -7 -43 -15 -17 -13 -15 -14 24 -9 33 4 45 1 55 -13 7 -10
17 -15 20 -11 10 10 45 -9 45 -24 0 -6 -10 -3 -22 8 -14 12 -18 13 -10 3 6 -9
9 -19 5 -22 -9 -10 -93 -8 -93 1 0 13 -130 5 -146 -9 -8 -6 -14 -23 -14 -38
l1 -26 15 28 c13 24 21 27 62 27 26 0 62 -4 79 -9 22 -7 49 -5 89 5 57 15 91
13 79 -6 -4 -6 -11 -8 -16 -5 -5 4 -9 1 -9 -5 0 -7 -7 -10 -15 -6 -8 3 -15 2
-15 -3 0 -16 -80 -30 -113 -20 -44 12 -124 11 -133 -2 -12 -19 13 -31 77 -35
61 -4 99 3 169 35 19 8 42 16 50 16 8 0 16 10 18 22 4 26 -63 94 -84 86 -6 -2
-15 0 -19 6 -4 7 0 8 11 4 12 -4 15 -3 10 5 -9 16 7 15 22 0 7 -7 12 -8 12 -2
0 5 5 2 10 -6 7 -10 10 -11 10 -2 0 13 -43 33 -62 29 -7 -1 -14 6 -16 16 -4
20 27 24 46 5 9 -9 12 -9 12 3 0 12 2 12 11 -1 9 -12 10 -12 5 3 -3 10 -6 32
-6 48 0 16 -5 29 -11 29 -5 0 -9 -8 -8 -17z"/>
<path d="M1395 593 c-28 -7 -42 -22 -19 -21 10 1 30 -2 44 -6 24 -8 25 -8 5 9
-11 9 -15 14 -8 11 6 -4 14 -2 18 4 6 10 -5 11 -40 3z"/>
<path d="M1450 580 c0 -5 5 -10 10 -10 6 0 10 5 10 10 0 6 -4 10 -10 10 -5 0
-10 -4 -10 -10z"/>
</g>
</svg>
